<?xml version="1.0" encoding="utf-8"?>
<!-- Generator: Adobe Illustrator 16.0.0, SVG Export Plug-In . SVG Version: 6.00 Build 0)  -->
<!DOCTYPE svg PUBLIC "-//W3C//DTD SVG 1.1//EN" "http://www.w3.org/Graphics/SVG/1.1/DTD/svg11.dtd">
<svg version="1.1" xmlns="http://www.w3.org/2000/svg" xmlns:xlink="http://www.w3.org/1999/xlink" x="0px" y="0px" width="130px"
	 height="130px" viewBox="-15 -15 130 130" enable-background="new -15 -15 130 130" xml:space="preserve">
<g id="Layer_3">
	<ellipse fill="#88B6A2" cx="50" cy="93.501" rx="62.666" ry="12.832"/>
</g>
<g id="Layer_2">
	<path fill="#FFFFFF" d="M95.25,93.834H1.637c0-8.407,0-16.814,0-25.222c0-5.821,0-11.643,0-17.464c0-2.627-0.334-4.968,1.485-7.035
		c2.38-2.703,6.042-3.981,8.059-7.1c1.688-2.611,3.307-5.086,4.868-7.631c3.441-5.609,8.889-8.398,14.263-11.992
		C35.379,14,40.959,10.299,45.5,6.584c2.646-2.165,3.523-5.119,7.188-1.938c2.561,2.223,3.935,5.189,5.805,7.889
		c2.119,3.059,5.938,5.199,8.744,7.604c3.318,2.844,6.286,5.653,9.25,8.749c1.298,1.356,2.443,2.584,3.875,3.939
		c1.796,1.7,3.901,2.094,5.831,3.319c2.707,1.717,4.93,4.216,7.304,6.143c1.449,1.176,1.571,0.705,1.753,2.736
		c0.82,9.171,0,18.791,0,27.996C95.25,79.959,95.25,86.896,95.25,93.834z"/>
</g>
<g id="Your_Icon">
	<g>
		<path fill="#4B6157" d="M97.313,44.544c-0.021-0.078-0.047-0.153-0.072-0.229c-0.078-0.224-0.179-0.44-0.301-0.643
			c-0.031-0.05-0.053-0.103-0.084-0.151c-0.144-0.211-0.305-0.411-0.494-0.587L84.509,31.862V10.638H61.787L51.326,0.864
			c-0.655-0.611-1.489-0.917-2.325-0.917c-0.836,0-1.67,0.306-2.324,0.917l-10.464,9.773h-22.72v21.221L1.637,42.933
			c-0.189,0.176-0.35,0.376-0.493,0.587c-0.032,0.048-0.055,0.102-0.085,0.151c-0.123,0.203-0.223,0.419-0.301,0.643
			c-0.026,0.077-0.051,0.151-0.073,0.229c-0.075,0.284-0.128,0.577-0.128,0.876v48.008c0,0.055,0.013,0.104,0.016,0.156
			c0.003,0.077,0.014,0.146,0.022,0.223c0.031,0.271,0.088,0.535,0.179,0.783c0.01,0.028,0.008,0.06,0.02,0.088
			c0.003,0.01,0.012,0.017,0.015,0.025c0.115,0.281,0.271,0.537,0.452,0.774c0.043,0.059,0.088,0.11,0.134,0.163
			c0.189,0.22,0.396,0.421,0.634,0.587c0.008,0.003,0.014,0.012,0.022,0.017c0.244,0.166,0.517,0.289,0.802,0.389
			c0.067,0.021,0.132,0.043,0.201,0.062c0.291,0.081,0.591,0.14,0.908,0.14h90.075c0.318,0,0.617-0.059,0.908-0.14
			c0.068-0.019,0.135-0.039,0.201-0.062c0.284-0.1,0.559-0.223,0.801-0.389c0.01-0.005,0.015-0.012,0.021-0.017
			c0.24-0.166,0.447-0.369,0.637-0.589c0.045-0.053,0.09-0.104,0.133-0.159c0.183-0.239,0.338-0.497,0.453-0.779
			c0.004-0.009,0.01-0.016,0.014-0.022c0.011-0.025,0.009-0.053,0.017-0.078c0.095-0.252,0.153-0.519,0.185-0.795
			c0.008-0.073,0.02-0.146,0.021-0.221c0.002-0.053,0.016-0.103,0.016-0.156V45.42C97.443,45.121,97.389,44.828,97.313,44.544z
			 M84.509,37.686l8.282,7.735l-8.282,7.737V37.686z M49.002,4.518l6.552,6.121H42.448L49.002,4.518z M48.921,17.649
			c13.821,0,23.286,6.111,23.286,23.187c0,10.167-2.152,13.121-9.766,13.121c-5.607,0-7.012-1.902-7.512-3.806
			c-0.762,1.104-1.706,1.992-3.199,2.596l-2.148-2.009c-0.328-0.307-0.834-0.307-1.162,0l-3.041,2.84
			c-7.929-0.295-10.13-5.972-10.13-13.042c0-7.211,2.554-12.972,11.167-12.972c5.059,0,6.811,1.002,8.063,3.054l1.752-2.653
			l4.608,0.4v18.029c0.05,2.103,0.45,3.656,3.255,3.656c3.557,0,3.807-2.254,3.807-9.215c0-14.224-7.16-19.081-18.979-19.081
			c-11.218,0-18.779,4.857-18.779,19.081c0,9.799,3.693,15.121,10.27,17.383l-3.526,3.293c-7.185-3.018-11.051-9.43-11.051-20.676
			C25.835,23.759,35.45,17.649,48.921,17.649z M64.746,60.467c-1.021,0.511-2.121,0.968-3.286,1.365l-3.511-3.279
			c1.862-0.459,3.584-1.047,4.992-1.741L64.746,60.467z M13.493,37.685V53.16l-8.285-7.74L13.493,37.685z M4.812,47.383
			l23.601,22.043L4.812,91.469V47.383z M6.119,92.579l42.883-40.054L91.88,92.579H6.119z M93.187,91.469l-23.6-22.043l23.6-22.043
			V91.469z"/>
		<path fill="#4B6157" d="M47.77,33.823c-4.307,0-5.509,2.707-5.509,6.713c0,4.056,1.202,7.211,5.509,7.211
			c4.406,0,6.16-2.304,6.16-7.211C53.93,35.729,52.427,33.823,47.77,33.823z"/>
	</g>
</g>
</svg>
